<svg width="310" height="226" viewBox="0 0 310 226" fill="none" xmlns="http://www.w3.org/2000/svg">
<g clip-path="url(#clip0_2204_348)">
<path d="M280.385 183.839C280.241 183.397 279.147 183.591 279.042 183.196C278.937 182.802 279.987 182.472 280.792 181.361C280.937 181.161 281.852 179.899 281.501 179.369C280.836 178.363 276.208 180.868 275.097 179.462C274.853 179.154 274.753 178.624 274.027 177.638C273.738 177.246 273.552 177.057 273.331 177.063C273.017 177.071 272.904 177.464 272.41 178.177C271.67 179.246 271.402 179.111 270.914 179.987C270.552 180.637 270.509 181.053 270.248 181.077C269.878 181.112 269.726 180.302 269.274 180.271C268.813 180.239 268.352 181.039 268.123 181.664C267.694 182.836 267.96 183.732 268.019 184.626C268.083 185.596 267.932 187.017 266.878 188.841L256.938 204.691C259.073 201.46 265.133 192.649 267.574 189.417C268.279 188.484 269.036 187.547 270.202 187.371C271.325 187.201 272.69 187.757 274.596 187.725C274.819 187.721 275.439 187.702 275.589 187.374C275.714 187.102 275.405 186.866 275.517 186.61C275.668 186.268 276.347 186.415 277.273 186.187C277.925 186.027 278.369 185.762 278.75 185.534C278.865 185.465 280.577 184.427 280.385 183.839Z" fill="#F2F2F2"/>
<path d="M254.349 187.539C254.091 187.483 253.87 188.076 253.646 188.014C253.423 187.951 253.564 187.34 253.252 186.625C253.195 186.496 252.841 185.682 252.479 185.701C251.794 185.738 251.687 188.734 250.677 188.874C250.455 188.905 250.167 188.801 249.474 188.873C249.198 188.902 249.052 188.939 248.991 189.049C248.904 189.206 249.064 189.374 249.271 189.823C249.582 190.495 249.439 190.587 249.728 191.08C249.942 191.445 250.133 191.586 250.07 191.722C249.98 191.913 249.539 191.755 249.393 191.968C249.245 192.185 249.504 192.642 249.744 192.935C250.196 193.484 250.712 193.612 251.167 193.841C251.661 194.089 252.315 194.573 252.905 195.617L257.81 205.073C256.842 203.092 254.269 197.573 253.389 195.441C253.134 194.826 252.893 194.184 253.143 193.56C253.384 192.96 254.051 192.449 254.585 191.504C254.647 191.393 254.817 191.084 254.699 190.915C254.602 190.775 254.397 190.859 254.304 190.73C254.179 190.557 254.448 190.266 254.603 189.746C254.713 189.379 254.71 189.085 254.709 188.832C254.708 188.755 254.693 187.615 254.349 187.539Z" fill="#F2F2F2"/>
<path d="M259.243 189.846L259.397 188.422L259.491 188.332C259.929 187.918 260.203 187.48 260.305 187.029C260.322 186.957 260.334 186.885 260.347 186.811C260.398 186.518 260.462 186.154 260.743 185.776C260.901 185.565 261.317 185.089 261.747 185.255C261.863 185.298 261.941 185.374 261.996 185.453C262.009 185.44 262.023 185.426 262.038 185.411C262.224 185.23 262.354 185.164 262.479 185.1C262.575 185.052 262.674 185.001 262.842 184.867C262.916 184.808 262.975 184.755 263.024 184.71C263.175 184.575 263.368 184.418 263.632 184.48C263.912 184.557 264.008 184.824 264.072 185.001C264.186 185.317 264.221 185.534 264.244 185.678C264.252 185.73 264.262 185.789 264.269 185.809C264.33 185.963 265.1 186.003 265.389 186.02C266.04 186.055 266.603 186.086 266.738 186.532C266.835 186.851 266.633 187.199 266.119 187.593C265.959 187.716 265.799 187.801 265.66 187.864C265.745 187.945 265.814 188.056 265.818 188.206C265.827 188.562 265.463 188.835 264.734 189.019C264.553 189.065 264.31 189.126 263.991 189.111C263.841 189.103 263.71 189.08 263.598 189.059C263.581 189.123 263.55 189.189 263.495 189.252C263.333 189.438 263.071 189.485 262.716 189.38C262.323 189.271 262.013 189.122 261.74 188.991C261.501 188.877 261.295 188.78 261.122 188.753C260.8 188.708 260.501 188.907 260.142 189.171L259.243 189.846Z" fill="#F2F2F2"/>
<path d="M261.809 181.732L260.393 181.944L260.282 181.876C259.771 181.557 259.278 181.403 258.816 181.418C258.742 181.421 258.669 181.427 258.594 181.433C258.298 181.458 257.93 181.489 257.493 181.312C257.25 181.213 256.684 180.931 256.736 180.473C256.748 180.349 256.801 180.255 256.864 180.182C256.847 180.172 256.831 180.162 256.812 180.151C256.591 180.017 256.494 179.908 256.401 179.804C256.329 179.723 256.255 179.64 256.083 179.511C256.007 179.455 255.941 179.411 255.885 179.374C255.717 179.263 255.515 179.116 255.509 178.844C255.512 178.554 255.746 178.393 255.9 178.287C256.177 178.097 256.378 178.008 256.511 177.949C256.56 177.927 256.614 177.903 256.631 177.891C256.765 177.792 256.608 177.037 256.551 176.753C256.42 176.114 256.307 175.561 256.704 175.317C256.987 175.142 257.375 175.25 257.887 175.647C258.046 175.771 258.168 175.905 258.265 176.023C258.322 175.92 258.411 175.826 258.555 175.784C258.897 175.684 259.253 175.968 259.616 176.626C259.706 176.79 259.827 177.01 259.893 177.322C259.924 177.47 259.935 177.603 259.943 177.717C260.009 177.716 260.081 177.729 260.156 177.767C260.376 177.877 260.488 178.118 260.477 178.489C260.471 178.896 260.406 179.234 260.349 179.532C260.299 179.792 260.257 180.016 260.276 180.19C260.314 180.513 260.582 180.753 260.928 181.033L261.809 181.732Z" fill="#F2F2F2"/>
<path d="M261.999 177.477L262.154 176.052L262.248 175.963C262.686 175.549 262.959 175.11 263.062 174.659C263.078 174.588 263.091 174.515 263.104 174.441C263.155 174.148 263.219 173.784 263.5 173.406C263.658 173.195 264.074 172.719 264.504 172.885C264.62 172.929 264.698 173.004 264.752 173.084C264.766 173.07 264.78 173.056 264.795 173.041C264.981 172.861 265.11 172.795 265.236 172.731C265.332 172.682 265.431 172.631 265.599 172.497C265.672 172.438 265.731 172.385 265.781 172.34C265.932 172.206 266.125 172.048 266.389 172.111C266.669 172.187 266.765 172.454 266.829 172.631C266.942 172.947 266.977 173.164 267 173.308C267.009 173.361 267.019 173.42 267.026 173.439C267.087 173.594 267.856 173.634 268.146 173.65C268.797 173.686 269.36 173.716 269.495 174.162C269.592 174.481 269.39 174.829 268.876 175.224C268.716 175.346 268.556 175.431 268.416 175.494C268.502 175.576 268.57 175.686 268.575 175.836C268.584 176.192 268.219 176.465 267.491 176.649C267.31 176.695 267.066 176.756 266.748 176.741C266.598 176.733 266.466 176.71 266.354 176.689C266.338 176.753 266.307 176.819 266.252 176.882C266.09 177.068 265.828 177.115 265.472 177.011C265.08 176.901 264.77 176.752 264.497 176.622C264.258 176.508 264.052 176.41 263.879 176.384C263.557 176.339 263.257 176.537 262.899 176.802L261.999 177.477Z" fill="#F2F2F2"/>
<path d="M257.408 204.772L257.157 204.524L256.809 204.488C256.811 204.455 256.809 204.378 256.806 204.259C256.793 203.603 256.751 201.609 257.029 198.544C257.223 196.405 257.546 194.234 257.991 192.089C258.437 189.941 258.899 188.343 259.271 187.059C259.551 186.09 259.834 185.171 260.11 184.276C260.847 181.885 261.543 179.626 261.974 177.049C262.071 176.474 262.271 175.277 261.861 173.864C261.623 173.044 261.216 172.273 260.65 171.571L261.198 171.129C261.822 171.904 262.273 172.758 262.537 173.668C262.992 175.235 262.773 176.539 262.668 177.166C262.23 179.788 261.527 182.069 260.783 184.483C260.508 185.375 260.226 186.29 259.947 187.255C259.579 188.527 259.12 190.111 258.68 192.232C258.241 194.351 257.921 196.495 257.729 198.608C257.455 201.634 257.497 203.598 257.51 204.244C257.517 204.589 257.519 204.661 257.408 204.772Z" fill="#F2F2F2"/>
<path d="M259.147 172.382C259.119 172.376 259.091 172.369 259.062 172.36C258.484 172.198 258.021 171.727 257.684 170.96C257.527 170.6 257.49 170.22 257.416 169.463C257.404 169.346 257.352 168.756 257.416 167.973C257.457 167.462 257.512 167.256 257.651 167.095C257.805 166.915 258.013 166.812 258.233 166.761C258.239 166.693 258.261 166.627 258.305 166.564C258.486 166.304 258.789 166.411 258.953 166.466C259.036 166.496 259.139 166.534 259.255 166.553C259.437 166.585 259.546 166.553 259.711 166.505C259.869 166.459 260.065 166.402 260.336 166.407C260.871 166.415 261.266 166.655 261.397 166.734C262.084 167.148 262.322 167.807 262.596 168.571C262.651 168.724 262.832 169.277 262.874 169.99C262.905 170.504 262.838 170.714 262.76 170.865C262.603 171.174 262.361 171.317 261.762 171.619C261.136 171.935 260.822 172.093 260.565 172.175C259.966 172.363 259.59 172.481 259.147 172.382Z" fill="#F2F2F2"/>
<path d="M53.7954 183.839C53.651 183.397 52.557 183.591 52.452 183.196C52.3473 182.802 53.3971 182.472 54.2023 181.361C54.3475 181.161 55.2624 179.899 54.9115 179.369C54.2463 178.363 49.6184 180.868 48.5075 179.462C48.2637 179.154 48.1634 178.624 47.4371 177.638C47.1482 177.246 46.9628 177.057 46.7413 177.063C46.4271 177.071 46.3146 177.464 45.8207 178.177C45.0799 179.246 44.8126 179.111 44.3247 179.987C43.9624 180.637 43.9195 181.053 43.6583 181.077C43.2886 181.112 43.1359 180.302 42.6842 180.271C42.2232 180.239 41.762 181.039 41.5334 181.664C41.1043 182.836 41.37 183.732 41.4289 184.626C41.4929 185.596 41.3426 187.017 40.2887 188.841L30.3483 204.691C32.4831 201.46 38.543 192.649 40.9845 189.417C41.6893 188.484 42.4467 187.547 43.6125 187.371C44.7349 187.201 46.1006 187.757 48.0068 187.725C48.2294 187.721 48.8489 187.702 48.9996 187.374C49.1242 187.102 48.8149 186.866 48.9274 186.61C49.0783 186.268 49.7575 186.415 50.683 186.187C51.3356 186.027 51.779 185.762 52.1602 185.534C52.2752 185.465 53.9876 184.427 53.7954 183.839Z" fill="#F2F2F2"/>
<path d="M27.7595 187.539C27.501 187.483 27.2808 188.076 27.0566 188.014C26.8332 187.951 26.9741 187.34 26.6619 186.625C26.6056 186.496 26.2509 185.682 25.8894 185.701C25.2041 185.738 25.0974 188.734 24.0874 188.874C23.8658 188.905 23.5771 188.801 22.8841 188.873C22.6084 188.902 22.4621 188.939 22.401 189.049C22.3142 189.206 22.4747 189.374 22.6817 189.823C22.9922 190.495 22.8492 190.587 23.1379 191.08C23.3522 191.445 23.5436 191.586 23.4802 191.722C23.3906 191.913 22.9495 191.755 22.8038 191.968C22.6551 192.185 22.9143 192.642 23.1547 192.935C23.606 193.484 24.1222 193.612 24.5773 193.841C25.0718 194.089 25.7253 194.573 26.3157 195.617L31.2207 205.073C30.2521 203.092 27.6794 197.573 26.7989 195.441C26.5447 194.826 26.3038 194.184 26.5537 193.56C26.7943 192.96 27.4609 192.449 27.995 191.504C28.0574 191.393 28.2271 191.084 28.1094 190.915C28.0122 190.775 27.807 190.859 27.7143 190.73C27.5898 190.557 27.8579 190.266 28.0133 189.746C28.1229 189.379 28.1209 189.085 28.1191 188.832C28.1185 188.755 28.1035 187.615 27.7595 187.539Z" fill="#F2F2F2"/>
<path d="M32.653 189.846L32.8072 188.422L32.9018 188.332C33.3393 187.918 33.613 187.48 33.7156 187.029C33.732 186.957 33.7446 186.885 33.7576 186.811C33.8088 186.518 33.8723 186.154 34.1537 185.776C34.3112 185.565 34.7278 185.089 35.1574 185.255C35.2734 185.298 35.3516 185.374 35.406 185.453C35.4197 185.44 35.4336 185.426 35.4486 185.411C35.6342 185.23 35.764 185.164 35.8891 185.1C35.9852 185.052 36.0844 185.001 36.2523 184.867C36.326 184.808 36.385 184.755 36.4347 184.71C36.5854 184.575 36.7783 184.418 37.0424 184.48C37.3224 184.557 37.4184 184.824 37.4821 185.001C37.5958 185.317 37.6309 185.534 37.654 185.678C37.6624 185.73 37.6721 185.789 37.6794 185.809C37.7407 185.963 38.51 186.003 38.7994 186.02C39.4501 186.055 40.0131 186.086 40.1485 186.532C40.2457 186.851 40.0432 187.199 39.5293 187.593C39.3693 187.716 39.2093 187.801 39.0699 187.864C39.1556 187.945 39.2239 188.056 39.2281 188.206C39.2375 188.562 38.8729 188.835 38.1445 189.019C37.9635 189.065 37.72 189.126 37.4014 189.111C37.2514 189.103 37.1199 189.08 37.0079 189.059C36.9912 189.123 36.9605 189.189 36.9053 189.252C36.7432 189.438 36.4814 189.485 36.126 189.38C35.7336 189.271 35.4236 189.122 35.1501 188.991C34.9111 188.877 34.7051 188.78 34.5322 188.753C34.2107 188.708 33.9109 188.907 33.5521 189.171L32.653 189.846Z" fill="#F2F2F2"/>
<path d="M35.219 181.732L33.8029 181.944L33.6924 181.876C33.1815 181.557 32.6884 181.403 32.2262 181.418C32.1527 181.421 32.0794 181.427 32.0047 181.433C31.7086 181.458 31.3405 181.489 30.9036 181.312C30.66 181.213 30.094 180.931 30.1458 180.473C30.1585 180.349 30.2113 180.255 30.2747 180.182C30.2578 180.172 30.2409 180.162 30.2227 180.151C30.0011 180.017 29.9043 179.908 29.811 179.804C29.7393 179.723 29.6654 179.64 29.4929 179.511C29.4172 179.455 29.351 179.411 29.2953 179.374C29.1269 179.263 28.9255 179.116 28.9189 178.844C28.9219 178.554 29.1559 178.393 29.3108 178.287C29.587 178.097 29.7879 178.008 29.9212 177.949C29.9699 177.927 30.0247 177.903 30.0414 177.891C30.1753 177.792 30.0188 177.037 29.9615 176.753C29.8306 176.114 29.7174 175.561 30.114 175.317C30.3976 175.142 30.7853 175.25 31.297 175.647C31.4563 175.771 31.5788 175.905 31.6754 176.023C31.732 175.92 31.8214 175.826 31.9656 175.784C32.307 175.684 32.6633 175.968 33.026 176.626C33.1166 176.79 33.2375 177.01 33.3034 177.322C33.3342 177.47 33.3453 177.603 33.353 177.717C33.419 177.716 33.491 177.729 33.5659 177.767C33.7866 177.877 33.8986 178.118 33.8876 178.489C33.8813 178.896 33.8162 179.234 33.7591 179.532C33.7096 179.792 33.6677 180.016 33.6858 180.19C33.7239 180.513 33.992 180.753 34.3385 181.033L35.219 181.732Z" fill="#F2F2F2"/>
<path d="M35.4098 177.477L35.564 176.052L35.6585 175.963C36.096 175.549 36.3697 175.11 36.4724 174.659C36.4887 174.588 36.5014 174.515 36.5143 174.441C36.5655 174.148 36.6291 173.784 36.9105 173.406C37.068 173.195 37.4845 172.719 37.9142 172.885C38.0301 172.929 38.1084 173.004 38.1628 173.084C38.1764 173.07 38.1904 173.056 38.2054 173.041C38.391 172.861 38.5208 172.795 38.6458 172.731C38.7419 172.682 38.8412 172.631 39.0091 172.497C39.0828 172.438 39.1418 172.385 39.1915 172.34C39.3422 172.206 39.535 172.048 39.7992 172.111C40.0792 172.187 40.1752 172.454 40.2389 172.631C40.3526 172.947 40.3876 173.164 40.4108 173.308C40.4192 173.361 40.4288 173.42 40.4362 173.439C40.4974 173.594 41.2668 173.634 41.5562 173.65C42.2069 173.686 42.7699 173.716 42.9053 174.162C43.0025 174.481 42.8 174.829 42.2861 175.224C42.1261 175.346 41.966 175.431 41.8266 175.494C41.9124 175.576 41.9807 175.686 41.9849 175.836C41.9943 176.192 41.6297 176.465 40.9013 176.649C40.7203 176.695 40.4768 176.756 40.1582 176.741C40.0082 176.733 39.8767 176.71 39.7647 176.689C39.7479 176.753 39.7173 176.819 39.6621 176.882C39.5 177.068 39.2381 177.115 38.8827 177.011C38.4904 176.901 38.1804 176.752 37.9068 176.622C37.6679 176.508 37.4619 176.41 37.289 176.384C36.9675 176.339 36.6677 176.537 36.3089 176.802L35.4098 177.477Z" fill="#F2F2F2"/>
<path d="M30.8182 204.772L30.5679 204.524L30.2199 204.488C30.2215 204.455 30.2193 204.378 30.2167 204.259C30.2033 203.603 30.1618 201.609 30.4393 198.544C30.6331 196.405 30.9569 194.234 31.4017 192.089C31.8473 189.941 32.3098 188.343 32.6812 187.059C32.9616 186.09 33.2445 185.171 33.5207 184.276C34.2578 181.885 34.9538 179.626 35.3847 177.049C35.4813 176.474 35.6816 175.277 35.2715 173.864C35.0335 173.044 34.6261 172.273 34.0601 171.571L34.6079 171.129C35.2324 171.904 35.683 172.758 35.9472 173.668C36.4019 175.235 36.1837 176.539 36.0788 177.166C35.6402 179.788 34.9372 182.069 34.1929 184.483C33.9181 185.375 33.6361 186.29 33.357 187.255C32.9889 188.527 32.5306 190.111 32.0908 192.232C31.651 194.351 31.3313 196.495 31.1397 198.608C30.8658 201.634 30.907 203.598 30.9204 204.244C30.9274 204.589 30.9289 204.661 30.8182 204.772Z" fill="#F2F2F2"/>
<path d="M32.5574 172.382C32.5293 172.376 32.5009 172.369 32.4725 172.36C31.8948 172.198 31.4314 171.727 31.0948 170.96C30.9372 170.6 30.9 170.22 30.8259 169.463C30.8142 169.346 30.7628 168.756 30.826 167.973C30.8671 167.462 30.9221 167.256 31.0611 167.095C31.2156 166.915 31.4237 166.812 31.6435 166.761C31.6495 166.693 31.6716 166.627 31.7155 166.564C31.8964 166.304 32.1992 166.411 32.3635 166.466C32.4462 166.496 32.5494 166.534 32.6654 166.553C32.8477 166.585 32.9566 166.553 33.1214 166.505C33.2791 166.459 33.4752 166.402 33.7462 166.407C34.2809 166.415 34.6768 166.655 34.8073 166.734C35.4948 167.148 35.7322 167.807 36.0068 168.571C36.0614 168.724 36.2426 169.277 36.2847 169.99C36.3152 170.504 36.2479 170.714 36.1707 170.865C36.0131 171.174 35.7717 171.317 35.1726 171.619C34.5468 171.935 34.2328 172.093 33.9753 172.175C33.3762 172.363 33 172.481 32.5574 172.382Z" fill="#F2F2F2"/>
<path d="M244.114 204.922C244.114 205.192 244.33 205.408 244.599 205.408H309.515C309.784 205.408 310 205.192 310 204.922C310 204.653 309.784 204.437 309.515 204.437H244.599C244.33 204.437 244.114 204.653 244.114 204.922Z" fill="#D32020" fill-opacity="0.7"/>
<path d="M0 204.922C0 205.192 0.216006 205.408 0.484992 205.408H65.4013C65.6703 205.408 65.8863 205.192 65.8863 204.922C65.8863 204.653 65.6703 204.437 65.4013 204.437H0.484992C0.216006 204.437 0 204.653 0 204.922Z" fill="#D32020" fill-opacity="0.7"/>
<path d="M213.988 205.148H97.0258V58.5262C97.0258 43.5597 102.667 29.3181 112.911 18.4243C124.084 6.54329 139.211 0 155.507 0C187.754 0 213.988 26.2548 213.988 58.5262V205.148ZM97.8408 204.332H213.173V58.5262C213.173 26.7045 187.304 0.815696 155.507 0.815696C139.438 0.815696 124.522 7.26778 113.505 18.9835C103.404 29.7251 97.8408 43.7684 97.8408 58.5262V204.332Z" fill="#D32020" fill-opacity="0.7"/>
<path d="M155.507 61.4431C155.401 61.4431 155.297 61.4016 155.219 61.3236L112.92 18.9922C112.761 18.8329 112.761 18.5748 112.92 18.4155C113.079 18.2562 113.337 18.2562 113.496 18.4155L155.1 60.0507V0.407848C155.1 0.182614 155.282 0 155.507 0C155.732 0 155.915 0.182614 155.915 0.407848V61.0352C155.915 61.2001 155.815 61.3489 155.663 61.412C155.613 61.4329 155.56 61.4431 155.507 61.4431Z" fill="#D32020" fill-opacity="0.7"/>
<path d="M197.918 18.8415L155.226 60.7484L155.797 61.3307L198.489 19.4238L197.918 18.8415Z" fill="#D32020" fill-opacity="0.7"/>
<path d="M213.581 60.7694H97.4332V61.5851H213.581V60.7694Z" fill="#D32020" fill-opacity="0.7"/>
<path d="M240.522 226C239.561 226 238.612 225.671 237.829 225.033L213.324 205.056L213.838 204.423L238.343 224.4C239.387 225.25 240.791 225.422 242.007 224.848C243.224 224.274 243.985 223.081 243.994 221.735L245.12 44.7987C245.128 43.5111 244.462 42.3696 243.337 41.7449C242.214 41.1209 240.895 41.1586 239.808 41.8462C224.152 51.7541 214.476 58.0679 213.926 58.7359C213.927 58.7343 213.959 58.6954 213.976 58.6251L213.185 58.4272C213.258 58.1372 213.393 57.5976 239.372 41.1568C240.715 40.3076 242.344 40.261 243.732 41.0317C245.122 41.8032 245.945 43.2133 245.935 44.8039L244.809 221.74C244.798 223.403 243.858 224.877 242.355 225.586C241.766 225.863 241.141 226 240.522 226Z" fill="#D32020" fill-opacity="0.7"/>
<path d="M213.7 167.441L213.462 168.221L244.565 177.7L244.803 176.92L213.7 167.441Z" fill="#D32020" fill-opacity="0.7"/>
<path d="M213.602 131.735L213.56 132.55L244.663 134.182L244.705 133.367L213.602 131.735Z" fill="#D32020" fill-opacity="0.7"/>
<path d="M245.153 87.8964L213.483 95.7562L213.679 96.548L245.349 88.6882L245.153 87.8964Z" fill="#D32020" fill-opacity="0.7"/>
<path d="M70.0846 226C69.4653 226 68.8409 225.863 68.2519 225.586C66.7487 224.877 65.8082 223.403 65.7977 221.74L64.6716 44.804C64.6615 43.2134 65.4849 41.8033 66.8742 41.0318C68.262 40.2607 69.8922 40.3079 71.2342 41.1569C97.2137 57.5976 97.3487 58.1373 97.4211 58.4273L96.6303 58.6252C96.6478 58.6955 96.6795 58.7344 96.6808 58.736C96.1304 58.068 86.4548 51.7541 70.7984 41.8463C69.7123 41.1591 68.3933 41.1212 67.2696 41.7449C66.1449 42.3697 65.4785 43.5112 65.4867 44.7988L66.6128 221.735C66.6213 223.081 67.3825 224.274 68.5993 224.848C69.8165 225.423 71.2202 225.25 72.2631 224.4L96.7684 204.424L97.283 205.056L72.7777 225.033C71.9943 225.671 71.0457 226 70.0846 226Z" fill="#D32020" fill-opacity="0.7"/>
<path d="M96.9066 167.44L65.804 176.921L66.0416 177.701L97.1442 168.22L96.9066 167.44Z" fill="#D32020" fill-opacity="0.7"/>
<path d="M97.0045 131.737L65.9011 133.365L65.9437 134.18L97.0471 132.552L97.0045 131.737Z" fill="#D32020" fill-opacity="0.7"/>
<path d="M65.4541 87.8961L65.2579 88.6879L96.9276 96.5485L97.1239 95.7567L65.4541 87.8961Z" fill="#D32020" fill-opacity="0.7"/>
<path d="M71.7585 147.233C74.2344 147.233 76.2414 145.225 76.2414 142.747C76.2414 140.269 74.2344 138.26 71.7585 138.26C69.2827 138.26 67.2756 140.269 67.2756 142.747C67.2756 145.225 69.2827 147.233 71.7585 147.233Z" fill="#D32020" fill-opacity="0.7"/>
<path d="M117.5 147.48H130.28V131.152H117.5V147.48Z" fill="#FFB6B6"/>
<path d="M129.465 101.761C130.112 100.544 130.415 100.013 130.28 99.3114C130.044 98.0781 128.667 97.4077 128.105 97.1343C126.301 96.256 123.962 96.3085 122.122 97.4064C121.017 98.066 120.427 98.9029 119.947 99.5835C119.517 100.193 118.18 102.09 118.315 104.482C118.417 106.278 119.238 106.389 119.131 107.476C118.863 110.203 113.626 110.164 112.333 113.19C111.167 115.92 113.503 120.454 116.956 122.171C122.212 124.785 127.902 119.798 128.921 118.905C131.376 116.754 132.999 113.793 132.456 113.19C132.138 112.838 131.3 113.542 130.008 113.19C128.536 112.79 127.754 111.365 127.561 111.013C126.446 108.981 127.1 106.757 127.289 106.115C127.465 105.518 128.131 104.266 129.465 101.761Z" fill="black"/>
<path d="M136.309 203.017L140.036 203.016L141.809 188.63L136.308 188.631L136.309 203.017Z" fill="#FFB6B6"/>
<path d="M149.077 202.932C149.193 203.128 149.255 203.759 149.255 203.986C149.255 204.685 148.688 205.252 147.99 205.252H136.449C135.972 205.252 135.586 204.865 135.586 204.389V203.908C135.586 203.908 135.015 202.462 136.19 200.681C136.19 200.681 137.651 202.076 139.834 199.891L140.478 198.724L145.138 202.135L147.721 202.453C148.286 202.523 148.787 202.442 149.077 202.932Z" fill="black"/>
<path d="M114.827 203.017L118.553 203.016L120.326 188.63L114.826 188.631L114.827 203.017Z" fill="#FFB6B6"/>
<path d="M127.595 202.932C127.711 203.128 127.772 203.759 127.772 203.986C127.772 204.685 127.206 205.252 126.507 205.252H114.966C114.49 205.252 114.103 204.865 114.103 204.389V203.908C114.103 203.908 113.532 202.462 114.708 200.681C114.708 200.681 116.169 202.076 118.352 199.891L118.995 198.724L123.655 202.135L126.238 202.453C126.803 202.523 127.304 202.442 127.595 202.932Z" fill="black"/>
<path d="M126.745 107.748L126.473 116.184L116.684 117.545L121.715 106.091L126.745 107.748Z" fill="#FFB6B6"/>
<path d="M124.026 110.469C127.18 110.469 129.736 107.91 129.736 104.754C129.736 101.598 127.18 99.0393 124.026 99.0393C120.872 99.0393 118.315 101.598 118.315 104.754C118.315 107.91 120.872 110.469 124.026 110.469Z" fill="#FFB6B6"/>
<path d="M117.5 140.949C117.5 140.949 111.381 147.616 115.188 153.603L114.644 172.925C114.644 172.925 112.379 186.922 115.007 196.116L119.539 195.784L122.802 171.836L126.065 156.052L133.679 171.564C133.679 171.564 133.136 182.722 135.855 194.696H141.837L141.293 166.938L130.17 138.502L117.5 140.949Z" fill="black"/>
<path d="M126.473 112.918L126.064 112.769L120.491 110.741C120.491 110.741 113.421 116.184 113.421 119.177C113.421 122.171 117.228 133.057 117.228 133.057C117.228 133.057 112.061 138.499 116.684 138.771C121.307 139.044 122.204 133.828 129.818 137.094L131.912 130.879C131.912 130.879 135.175 123.804 133.544 122.171L126.473 112.918Z" fill="#E6E6E6"/>
<path d="M134.692 109.014C135.03 107.43 136.12 106.32 137.128 106.535C138.136 106.75 138.678 108.209 138.34 109.794C138.214 110.429 137.937 111.025 137.534 111.531L136.018 118.227L133.373 117.62L134.719 110.93C134.557 110.303 134.548 109.646 134.692 109.014Z" fill="#FFB6B6"/>
<path d="M116.863 115.963L129.057 123.653L133.468 111.41L138.036 112.614L134.043 126.893C133.471 128.937 131.244 130.022 129.284 129.212L112.543 122.29L116.863 115.963Z" fill="#E6E6E6"/>
<path d="M135.482 116.155L130.159 110.378C130.073 110.284 130.029 110.157 130.04 110.03C130.051 109.903 130.116 109.786 130.217 109.708L135.171 105.913C135.271 105.836 135.4 105.805 135.524 105.826C135.648 105.847 135.759 105.92 135.828 106.025L140.135 112.619C140.265 112.818 140.219 113.087 140.029 113.231L136.091 116.209C136.051 116.239 136.007 116.262 135.962 116.278C135.796 116.334 135.608 116.291 135.482 116.155Z" fill="#6C63FF"/>
<path d="M129.685 109.817C129.744 109.753 129.825 109.668 129.924 109.568C129.85 109.539 129.784 109.487 129.741 109.412L129.44 108.895C129.362 108.76 129.379 108.591 129.482 108.475C130.095 107.782 132.262 105.465 134.354 104.846C134.485 104.807 134.626 104.849 134.718 104.949L135.142 105.412C135.195 105.469 135.225 105.539 135.234 105.609C135.388 105.535 135.543 105.463 135.7 105.395C135.798 105.352 135.913 105.372 135.992 105.445L136.19 105.627C136.316 105.742 136.306 105.944 136.17 106.046L130.21 110.541C130.074 110.643 129.879 110.598 129.802 110.447L129.64 110.128C129.588 110.025 129.606 109.901 129.685 109.817Z" fill="#D32020" fill-opacity="0.7"/>
<path d="M173.906 177.476C171.97 178.644 171.779 179.195 170.607 179.677C170.013 179.921 168.902 180.256 166.758 179.952C163.804 179.533 161.982 178.339 156.861 175.55C153.209 173.561 151.423 172.691 148.889 172.249C146.99 171.917 145.886 172.038 145.04 172.249C142.088 172.984 140.477 175.262 140.091 175.825C138.758 177.772 138.589 179.672 138.442 181.328C138.257 183.413 137.989 186.426 139.541 188.756C141.487 191.676 144.196 190.382 148.889 193.158C154.075 196.226 153.208 199.252 157.411 200.862C162.789 202.921 168.644 199.666 168.957 199.486C174.526 196.29 175.665 190.49 178.579 190.957C180.321 191.236 180.494 193.399 183.253 193.983C183.769 194.093 185.894 194.543 187.377 193.158C188.288 192.307 188.26 194.212 187.789 193.021C187.185 191.491 185.966 188.505 185.177 186.83C184.756 185.936 185.231 185.659 184.902 183.254C184.742 182.079 184.661 181.485 184.353 180.777C183.589 179.024 182.105 178.118 181.054 177.476C179.775 176.695 178.517 175.928 176.93 176.1C176.021 176.199 175.316 176.625 173.906 177.476Z" fill="#D32020" fill-opacity="0.7"/>
<path d="M140.366 184.079C139.879 184.479 139.762 185.289 139.541 186.83C139.337 188.256 139.461 189.13 139.541 190.682C139.662 193.011 139.472 192.794 139.541 195.909C139.599 198.473 139.627 199.754 139.816 200.862C140.157 202.853 140.338 202.088 142.016 207.189C142.356 208.225 142.627 209.103 143.39 209.39C144.347 209.75 145.448 208.946 145.59 208.84C145.821 208.666 146.638 208.054 146.689 207.189C146.754 206.092 145.513 205.814 144.49 204.163C143.851 203.132 143.697 202.1 143.39 200.036C143.098 198.073 142.952 197.092 143.39 196.184C144.19 194.529 146.019 194.015 146.139 193.983C147.234 193.694 147.588 194.104 148.889 193.983C150.105 193.871 152.109 193.298 152.462 192.333C153.43 189.687 142.696 182.169 140.366 184.079Z" fill="#D32020" fill-opacity="0.7"/>
<path d="M144.765 180.227C144.277 180.627 144.161 181.437 143.94 182.978C143.736 184.404 143.86 185.279 143.94 186.83C144.06 189.159 143.871 188.942 143.94 192.058C143.997 194.621 144.026 195.902 144.215 197.01C144.555 199.001 144.737 198.236 146.414 203.338C146.755 204.373 147.026 205.251 147.789 205.539C148.745 205.899 149.847 205.094 149.988 204.988C150.22 204.815 151.037 204.202 151.088 203.338C151.153 202.24 149.912 201.962 148.889 200.311C148.25 199.28 148.096 198.248 147.789 196.184C147.497 194.222 147.351 193.24 147.789 192.333C148.588 190.677 150.418 190.163 150.538 190.132C151.633 189.842 151.986 190.252 153.287 190.132C154.504 190.019 156.508 189.446 156.861 188.481C157.829 185.836 147.094 178.317 144.765 180.227Z" fill="#D32020" fill-opacity="0.7"/>
<path d="M153.012 193.708C152.703 194.181 152.348 195.399 151.638 197.835C151.321 198.922 149.271 206.07 148.614 208.29C148.425 208.928 148.18 209.725 147.514 210.491C146.953 211.136 146.654 211.116 146.414 211.591C145.791 212.829 147.008 214.576 147.239 214.893C147.508 215.262 148.759 216.977 150.538 216.819C150.724 216.802 151.926 216.695 152.188 215.993C152.588 214.918 150.233 213.908 150.263 212.142C150.281 211.099 151.116 210.666 152.188 209.39C154.486 206.653 153.506 205.231 155.212 203.063C157.763 199.819 162.506 199.76 163.184 199.761C164.94 199.764 167.384 199.767 168.957 201.412C171.151 203.705 170.244 207.716 171.157 213.793C171.157 213.793 171.305 214.778 171.707 216.269C172.37 218.729 172.899 219.364 173.081 219.57C173.329 219.85 174.053 220.646 175.28 220.946C175.45 220.987 176.231 221.166 177.205 220.946C177.851 220.799 178.44 220.666 178.854 220.12C179.252 219.597 179.403 218.808 179.129 218.195C178.798 217.452 178.116 217.572 177.205 216.819C176.561 216.287 176.226 215.547 175.555 214.068C175.258 213.413 174.814 212.419 174.456 211.041C174.041 209.446 173.991 208.214 173.906 205.814C173.834 203.792 173.869 202.111 173.906 200.311C173.949 198.216 174.007 197.531 173.906 196.184C173.799 194.772 173.695 193.396 173.356 192.608C171.53 188.368 157.042 187.557 153.012 193.708Z" fill="#D32020" fill-opacity="0.7"/>
<path d="M141.466 175C140.291 174.349 140.123 172.828 139.816 170.048C139.593 168.022 139.46 166.816 140.091 165.37C140.943 163.419 142.543 162.508 142.84 162.344C143.166 162.165 145.301 161.032 147.514 161.794C147.823 161.9 148.64 162.508 150.263 163.72C152.2 165.165 152.484 165.441 152.737 165.921C153.416 167.203 153.344 168.937 152.737 169.222C152.277 169.439 151.48 168.831 151.088 168.397C150.619 167.877 150.689 167.562 150.263 167.021C149.925 166.592 149.608 166.443 148.614 165.921C146.152 164.628 146.027 164.456 145.59 164.545C144.499 164.766 143.979 166.093 143.94 166.196C143.607 167.08 143.835 167.885 144.215 169.222C144.416 169.93 144.644 170.476 145.04 171.423C145.756 173.138 145.945 173.267 145.865 173.624C145.6 174.796 143.018 175.859 141.466 175Z" fill="#D32020" fill-opacity="0.7"/>
<path d="M169.645 179.815C169.19 179.89 168.97 182.49 169.645 184.767C170.106 186.323 171.038 187.899 171.204 188.177C171.335 188.396 171.461 188.596 171.844 189.169C173.719 191.971 174.666 193.37 175.143 193.296C175.778 193.196 174.039 191.692 173.906 190.254C173.658 187.581 172.458 187.251 170.332 183.376C169.181 181.28 169.999 179.756 169.645 179.815Z" fill="#6C63FF"/>
<path d="M179.267 178.989C179.497 177.818 178.19 176.193 176.792 175.963C174.755 175.627 172.986 178.336 172.394 180.09C171.579 182.501 172.494 184.574 172.944 185.592C173.508 186.87 173.929 186.953 174.043 186.968C174.875 187.072 175.861 185.547 176.243 184.216C176.578 183.046 176.2 182.885 176.518 182.015C177.172 180.225 179.021 180.238 179.267 178.989Z" fill="black"/>
<path d="M170.05 184.858L115.498 149.229L116.302 149.047L170.854 184.675L170.05 184.858Z" fill="#6C63FF"/>
<path d="M118.018 148.785C118.213 150.514 117.479 152.017 116.379 152.141C115.28 152.265 114.23 150.964 114.035 149.234C113.948 148.544 114.027 147.843 114.266 147.19L113.532 139.852L116.432 139.569L117.338 146.843C117.716 147.427 117.949 148.093 118.018 148.785Z" fill="#FFB6B6"/>
<path d="M116.611 113.983L111.73 118.447L111.36 133.405L113.635 144.65L117.02 144.278L115.8 131.307L117.839 116.978L116.611 113.983Z" fill="#E6E6E6"/>
<path d="M126.745 101.489C127.393 100.272 127.696 99.7414 127.561 99.0393C127.324 97.8061 125.947 97.1356 125.386 96.8622C123.582 95.9839 121.243 96.0364 119.403 97.1343C118.298 97.7939 117.708 98.6308 117.228 99.3114C116.798 99.9214 115.46 101.818 115.596 104.21C115.698 106.005 116.519 106.117 116.412 107.203C116.143 109.931 110.906 109.892 109.614 112.918C108.448 115.648 110.784 120.182 114.236 121.899C119.493 124.513 125.183 119.526 126.201 118.633C128.656 116.482 130.28 113.521 129.736 112.918C129.418 112.566 128.581 113.27 127.289 112.918C125.816 112.518 125.035 111.093 124.842 110.741C123.727 108.709 124.381 106.485 124.57 105.843C124.745 105.246 125.412 103.993 126.745 101.489Z" fill="black"/>
<path d="M155.507 61.443C155.462 61.443 155.417 61.4357 155.374 61.4207L100.153 42.3939C99.9406 42.3206 99.8274 42.0886 99.9008 41.8755C99.974 41.6626 100.205 41.5493 100.419 41.6228L155.503 60.6027L210.721 40.5124C210.933 40.4359 211.166 40.5448 211.243 40.7563C211.32 40.968 211.211 41.202 210.999 41.2791L155.646 61.4185C155.601 61.4349 155.554 61.443 155.507 61.443Z" fill="#D32020" fill-opacity="0.7"/>
</g>
<defs>
<clipPath id="clip0_2204_348">
<rect width="310" height="226" fill="white"/>
</clipPath>
</defs>
</svg>
